<svg version="1.1" id="Layer_1" xmlns="http://www.w3.org/2000/svg" xmlns:xlink="http://www.w3.org/1999/xlink" x="0px" y="0px"
	 width="100%" viewBox="0 0 195 195" enable-background="new 0 0 195 195" xml:space="preserve">
<path fill="#FDFDFD" opacity="1.000000" stroke="none" 
	d="
M103.000000,196.000000 
	C68.688362,196.000000 34.876732,196.000000 1.032548,196.000000 
	C1.032548,131.063400 1.032548,66.126778 1.032548,1.095080 
	C65.894806,1.095080 130.789795,1.095080 195.842392,1.095080 
	C195.842392,65.999695 195.842392,130.999817 195.842392,196.000000 
	C165.127060,196.000000 134.313538,196.000000 103.000000,196.000000 
M127.575012,52.432365 
	C127.534645,52.620754 127.494270,52.809147 127.251045,53.088821 
	C127.251045,53.088821 126.996056,53.446545 126.418861,53.952755 
	C126.098213,54.634411 125.777565,55.316071 125.124527,56.407383 
	C125.080811,57.091763 125.037102,57.776142 124.531746,57.957577 
	C123.022835,59.577946 121.360245,61.082024 120.031120,62.838436 
	C113.635521,71.290108 107.349167,79.824341 100.980736,88.296707 
	C99.047043,90.869225 97.313789,90.352356 95.446144,87.977234 
	C94.237839,86.440598 92.526176,85.299767 91.006676,83.994431 
	C91.006676,83.994431 91.024254,83.963272 91.414314,83.328705 
	C90.289085,82.213745 89.163849,81.098785 88.004890,79.997940 
	C88.004890,79.997940 88.027138,79.969215 88.291275,79.269928 
	C87.532631,78.331932 86.773987,77.393944 85.912689,76.236847 
	C85.912689,76.236847 85.521721,75.966438 85.452721,75.193733 
	C83.980606,73.954643 82.508492,72.715546 80.574158,71.079048 
	C79.051888,69.235664 77.529617,67.392281 76.416740,65.180359 
	C76.356415,65.006935 76.296097,64.833519 76.967766,64.474739 
	C76.923195,63.998264 76.878624,63.521793 76.604973,62.415489 
	C72.740944,56.909012 68.876907,51.402534 64.912613,45.194153 
	C61.643356,40.447739 58.410839,35.675179 55.069496,30.980066 
	C54.497398,30.176174 53.460773,29.702869 52.638737,29.076847 
	C52.034386,30.105419 51.430035,31.133991 50.282768,31.852331 
	C49.524269,31.160667 48.765766,30.469004 48.005215,29.094172 
	C46.452831,24.454453 42.357613,23.712469 38.206139,22.364681 
	C38.084476,23.767675 37.999664,24.745707 37.879131,26.518383 
	C52.912601,58.900600 67.794022,91.355156 83.131523,123.592728 
	C85.642860,128.871231 90.019081,133.312332 93.801994,137.919922 
	C96.716408,141.469711 100.325729,141.325043 103.144165,137.912537 
	C107.147224,133.065689 111.624329,128.292236 114.299576,122.719627 
	C129.178345,91.726814 143.578568,60.504196 158.110413,29.345228 
	C158.534515,28.435856 158.601852,27.360086 158.964386,25.811457 
	C157.585892,26.433910 156.865784,26.759077 156.106720,26.244911 
	C155.990433,25.508917 155.874146,24.772923 155.757858,24.036928 
	C155.539932,24.060574 155.322006,24.084221 155.104095,24.107866 
	C155.218781,25.313982 155.333481,26.520100 155.374573,28.393627 
	C153.308350,31.952755 151.242126,35.511883 148.470093,39.029480 
	C147.649261,38.694126 146.828445,38.358772 146.129944,37.317863 
	C146.766129,35.541538 147.402313,33.765213 148.676025,31.910547 
	C148.796295,30.508976 148.916565,29.107403 149.085617,27.137165 
	C138.498718,32.741776 134.554550,42.281986 128.837952,51.001434 
	C128.542679,51.332397 128.247391,51.663357 127.575012,52.432365 
M115.556190,174.257339 
	C117.795448,173.153763 120.034698,172.050186 122.273956,170.946609 
	C122.206024,171.344254 122.138092,171.741882 122.070168,172.139511 
	C124.110672,172.945770 126.151184,173.752029 129.293488,174.993637 
	C127.453697,168.903000 126.292557,164.267410 124.566521,159.852676 
	C124.081772,158.612808 121.974495,157.424011 120.540825,157.333740 
	C119.502380,157.268341 117.804832,158.847366 117.344513,160.053192 
	C115.876228,163.899429 114.771118,167.893616 113.730011,171.883957 
	C113.565750,172.513580 114.459862,173.419312 115.556190,174.257339 
M68.506180,174.093536 
	C69.367432,173.074387 70.700623,172.168839 70.979713,171.009537 
	C71.401909,169.255814 71.089943,167.325333 71.089943,165.469971 
	C71.668884,165.327087 72.247833,165.184204 72.826775,165.041321 
	C74.077545,167.382370 75.252708,169.768890 76.618706,172.040634 
	C77.119476,172.873444 77.982231,173.733383 78.855919,173.996643 
	C79.310890,174.133743 80.704109,173.020309 80.725510,172.436966 
	C80.889740,167.959351 80.894424,163.470642 80.738068,158.992722 
	C80.716911,158.386703 79.547554,157.391663 78.868011,157.355118 
	C78.149048,157.316467 76.996872,158.050842 76.718597,158.728668 
	C76.246193,159.879364 76.310875,161.250534 76.107887,162.861984 
	C73.244370,160.588394 70.724785,158.587875 68.205193,156.587357 
	C67.716888,156.959641 67.228584,157.331909 66.740280,157.704193 
	C67.027405,163.101990 67.314522,168.499771 68.506180,174.093536 
M34.386383,171.051041 
	C35.820919,166.756317 37.255459,162.461594 38.867088,157.636703 
	C31.083529,156.637604 34.888691,164.561691 30.917622,165.673248 
	C28.114786,163.365479 30.300180,156.065262 22.739061,157.612991 
	C24.546093,162.682281 26.034689,167.223083 27.787369,171.659561 
	C29.188135,175.205276 31.286194,175.187057 34.386383,171.051041 
M142.998718,169.843872 
	C141.848740,169.290939 140.698776,168.737991 139.548813,168.185059 
	C139.169098,168.576431 138.789398,168.967804 138.409698,169.359177 
	C139.870651,170.860245 141.171738,173.353561 142.831467,173.620972 
	C145.104080,173.987122 148.810013,173.464554 149.875046,171.922867 
	C154.331741,165.471588 145.521469,165.658783 143.551620,161.067993 
	C146.068222,161.424088 147.793213,161.668152 149.518204,161.912231 
	C149.849792,161.548355 150.181396,161.184494 150.512985,160.820618 
	C149.379852,159.743942 148.237015,157.764084 147.115540,157.776123 
	C144.680634,157.802261 140.974045,158.075760 140.053558,159.608810 
	C136.362549,165.756134 144.308304,165.821228 146.350708,169.651093 
	C145.220169,169.813736 144.485428,169.919434 142.998718,169.843872 
M99.343681,167.902390 
	C100.678436,167.090561 102.013199,166.278748 104.311447,164.880905 
	C101.209862,163.931580 99.780098,163.493958 97.256805,162.721619 
	C99.062256,161.836960 99.754707,161.545822 100.398705,161.171356 
	C101.494949,160.533966 102.560730,159.844177 103.639320,159.176407 
	C102.391968,158.508362 101.206116,157.486877 99.882591,157.256592 
	C97.982918,156.926025 95.982880,157.172256 93.405067,157.172256 
	C93.405067,162.029358 93.481865,166.462097 93.380913,170.890778 
	C93.299232,174.474625 95.149544,174.528885 97.780891,173.713531 
	C98.059937,171.769073 98.313972,169.998871 99.343681,167.902390 
M172.149689,160.889771 
	C172.890533,159.878662 173.631378,158.867569 174.899277,157.137131 
	C170.948532,157.137131 168.132904,156.934769 165.366989,157.218018 
	C163.865875,157.371765 162.449432,158.352112 160.994797,158.959610 
	C162.148392,160.001144 163.301971,161.042694 165.113434,162.678192 
	C165.113434,165.904007 165.113434,169.983276 165.113434,174.063385 
	C169.636612,173.854782 169.468521,173.840378 169.786270,170.133224 
	C170.047897,167.080978 170.770203,164.068207 172.149689,160.889771 
M54.189762,161.760178 
	C53.368721,160.266724 52.547684,158.773270 51.726646,157.279816 
	C51.074062,158.706589 49.993084,160.093994 49.857552,161.568298 
	C49.570320,164.692825 49.852943,167.865005 49.758163,171.013306 
	C49.661678,174.218338 51.225227,174.546371 54.189060,173.557312 
	C54.189060,169.924194 54.189060,166.311462 54.189762,161.760178 
M150.833511,27.237911 
	C150.890762,27.410778 150.948013,27.583643 151.005280,27.756516 
	C151.061111,27.582808 151.116959,27.409100 150.833511,27.237911 
M152.807404,25.741465 
	C152.965240,25.625870 153.123093,25.510273 153.280930,25.394676 
	C153.061218,25.418547 152.841522,25.442419 152.807404,25.741465 
z"/>
<path fill="#77787B" opacity="1.000000" stroke="none" 
	d="
M156.145660,27.084240 
	C156.865784,26.759077 157.585892,26.433910 158.964386,25.811457 
	C158.601852,27.360086 158.534515,28.435856 158.110413,29.345228 
	C143.578568,60.504196 129.178345,91.726814 114.299576,122.719627 
	C111.624329,128.292236 107.147224,133.065689 103.144165,137.912537 
	C100.325729,141.325043 96.716408,141.469711 93.801994,137.919922 
	C90.019081,133.312332 85.642860,128.871231 83.131523,123.592728 
	C67.794022,91.355156 52.912601,58.900600 38.251095,26.197968 
	C40.289467,27.902672 42.326023,29.726204 43.557831,31.988016 
	C48.729767,41.484592 53.593723,51.148251 58.694241,60.684517 
	C69.362785,80.631134 80.040916,100.573441 90.889923,120.421967 
	C92.759956,123.843224 95.492432,126.793091 98.367241,130.694519 
	C100.716743,127.853714 102.688080,125.872879 104.195404,123.586182 
	C121.834671,96.826332 134.704178,67.521553 149.175903,39.071007 
	C151.242126,35.511883 153.308350,31.952755 155.563690,27.998425 
	C155.966904,27.493229 156.097870,27.320234 156.145660,27.084240 
z"/>
<path fill="#F6F7F7" opacity="1.000000" stroke="none" 
	d="
M148.822998,39.050243 
	C134.704178,67.521553 121.834671,96.826332 104.195404,123.586182 
	C102.688080,125.872879 100.716743,127.853714 98.367241,130.694519 
	C95.492432,126.793091 92.759956,123.843224 90.889923,120.421967 
	C80.040916,100.573441 69.362785,80.631134 58.694241,60.684517 
	C53.593723,51.148251 48.729767,41.484592 43.557831,31.988016 
	C42.326023,29.726204 40.289467,27.902672 38.268955,25.800644 
	C37.999664,24.745707 38.084476,23.767675 38.206139,22.364681 
	C42.357613,23.712469 46.452831,24.454453 47.752945,29.635714 
	C56.466400,46.822781 65.175079,63.613865 74.488922,80.062271 
	C80.620338,90.890442 87.425751,101.356644 94.324982,111.721596 
	C97.504539,116.498352 99.328514,116.529335 102.577164,111.856491 
	C108.641449,103.133667 114.490356,94.221352 119.810997,85.030197 
	C128.796631,69.507965 137.300919,53.707111 146.007614,38.023422 
	C146.828445,38.358772 147.649261,38.694126 148.822998,39.050243 
z"/>
<path fill="#797A7C" opacity="1.000000" stroke="none" 
	d="
M146.068787,37.670643 
	C137.300919,53.707111 128.796631,69.507965 119.810997,85.030197 
	C114.490356,94.221352 108.641449,103.133667 102.577164,111.856491 
	C99.328514,116.529335 97.504539,116.498352 94.324982,111.721596 
	C87.425751,101.356644 80.620338,90.890442 74.488922,80.062271 
	C65.175079,63.613865 56.466400,46.822781 47.753967,29.977299 
	C48.765766,30.469004 49.524269,31.160667 50.577606,31.992874 
	C50.872444,32.133415 50.828274,32.110653 50.902809,32.391621 
	C51.352898,33.104923 51.728455,33.537258 52.196053,34.293678 
	C60.608475,48.237896 68.776978,61.954048 77.304832,75.443008 
	C82.625092,83.858322 88.289680,92.076256 94.184410,100.100166 
	C97.511475,104.628952 98.926956,104.469101 102.726852,100.115677 
	C105.562691,96.866737 108.375984,93.518539 110.649223,89.871651 
	C121.469643,72.512787 132.057236,55.008873 142.858200,37.637730 
	C144.183990,35.505463 146.292648,33.859970 148.038513,31.988892 
	C147.402313,33.765213 146.766129,35.541538 146.068787,37.670643 
z"/>
<path fill="#F3F3F5" opacity="1.000000" stroke="none" 
	d="
M148.357269,31.949722 
	C146.292648,33.859970 144.183990,35.505463 142.858200,37.637730 
	C132.057236,55.008873 121.469643,72.512787 110.649223,89.871651 
	C108.375984,93.518539 105.562691,96.866737 102.726852,100.115677 
	C98.926956,104.469101 97.511475,104.628952 94.184410,100.100166 
	C88.289680,92.076256 82.625092,83.858322 77.304832,75.443008 
	C68.776978,61.954048 60.608475,48.237896 52.505333,34.245834 
	C52.952595,33.428226 53.182617,32.982548 53.412640,32.536869 
	C52.551186,32.394798 51.689728,32.252728 50.828274,32.110653 
	C50.828274,32.110653 50.872444,32.133415 50.849068,32.147987 
	C51.430035,31.133991 52.034386,30.105419 52.638737,29.076847 
	C53.460773,29.702869 54.497398,30.176174 55.069496,30.980066 
	C58.410839,35.675179 61.643356,40.447739 64.628632,45.561310 
	C64.203896,46.447502 63.769989,47.158646 63.965649,47.457214 
	C67.936264,53.516140 71.979027,59.527786 76.007347,65.548897 
	C77.529617,67.392281 79.051888,69.235664 80.723618,71.636490 
	C81.260406,72.793274 81.647736,73.392609 82.091415,74.256096 
	C82.403793,74.767876 82.659828,75.015518 83.147041,75.645599 
	C84.092728,76.007515 84.807220,75.986984 85.521721,75.966446 
	C85.521721,75.966438 85.912689,76.236847 85.572952,76.685783 
	C86.164520,78.079552 87.095833,79.024384 88.027138,79.969215 
	C88.027138,79.969215 88.004890,79.997940 87.667068,80.266251 
	C88.560921,81.677467 89.792587,82.820366 91.024254,83.963272 
	C91.024254,83.963272 91.006676,83.994431 90.682350,84.242523 
	C92.152145,86.819031 93.642952,89.523804 95.868256,91.317200 
	C96.982063,92.214813 100.453468,92.216362 101.128418,91.320160 
	C109.271088,80.508301 117.090057,69.452644 124.993385,58.460526 
	C125.037102,57.776142 125.080811,57.091763 125.836700,56.345322 
	C126.697937,55.337685 126.846992,54.392117 126.996048,53.446545 
	C126.996056,53.446545 127.251045,53.088821 127.785538,53.267845 
	C128.672028,52.932720 129.024033,52.418575 129.439758,51.672493 
	C129.503479,51.440556 129.532059,50.960342 129.532059,50.960342 
	C134.554550,42.281986 138.498718,32.741776 149.085617,27.137165 
	C148.916565,29.107403 148.796295,30.508976 148.357269,31.949722 
z"/>
<path fill="#7B7C7E" opacity="1.000000" stroke="none" 
	d="
M115.210403,174.227356 
	C114.459862,173.419312 113.565750,172.513580 113.730011,171.883957 
	C114.771118,167.893616 115.876228,163.899429 117.344513,160.053192 
	C117.804832,158.847366 119.502380,157.268341 120.540825,157.333740 
	C121.974495,157.424011 124.081772,158.612808 124.566521,159.852676 
	C126.292557,164.267410 127.453697,168.903000 129.293488,174.993637 
	C126.151184,173.752029 124.110672,172.945770 122.070168,172.139511 
	C122.138092,171.741882 122.206024,171.344254 122.273956,170.946609 
	C120.034698,172.050186 117.795448,173.153763 115.210403,174.227356 
z"/>
<path fill="#797A7C" opacity="1.000000" stroke="none" 
	d="
M68.053909,173.995544 
	C67.314522,168.499771 67.027405,163.101990 66.740280,157.704193 
	C67.228584,157.331909 67.716888,156.959641 68.205193,156.587357 
	C70.724785,158.587875 73.244370,160.588394 76.107887,162.861984 
	C76.310875,161.250534 76.246193,159.879364 76.718597,158.728668 
	C76.996872,158.050842 78.149048,157.316467 78.868011,157.355118 
	C79.547554,157.391663 80.716911,158.386703 80.738068,158.992722 
	C80.894424,163.470642 80.889740,167.959351 80.725510,172.436966 
	C80.704109,173.020309 79.310890,174.133743 78.855919,173.996643 
	C77.982231,173.733383 77.119476,172.873444 76.618706,172.040634 
	C75.252708,169.768890 74.077545,167.382370 72.826775,165.041321 
	C72.247833,165.184204 71.668884,165.327087 71.089943,165.469971 
	C71.089943,167.325333 71.401909,169.255814 70.979713,171.009537 
	C70.700623,172.168839 69.367432,173.074387 68.053909,173.995544 
z"/>
<path fill="#7D7D7E" opacity="1.000000" stroke="none" 
	d="
M34.250423,171.424469 
	C31.286194,175.187057 29.188135,175.205276 27.787369,171.659561 
	C26.034689,167.223083 24.546093,162.682281 22.739061,157.612991 
	C30.300180,156.065262 28.114786,163.365479 30.917622,165.673248 
	C34.888691,164.561691 31.083529,156.637604 38.867088,157.636703 
	C37.255459,162.461594 35.820919,166.756317 34.250423,171.424469 
z"/>
<path fill="#7D7D7E" opacity="1.000000" stroke="none" 
	d="
M143.374710,169.934509 
	C144.485428,169.919434 145.220169,169.813736 146.350708,169.651093 
	C144.308304,165.821228 136.362549,165.756134 140.053558,159.608810 
	C140.974045,158.075760 144.680634,157.802261 147.115540,157.776123 
	C148.237015,157.764084 149.379852,159.743942 150.512985,160.820618 
	C150.181396,161.184494 149.849792,161.548355 149.518204,161.912231 
	C147.793213,161.668152 146.068222,161.424088 143.551620,161.067993 
	C145.521469,165.658783 154.331741,165.471588 149.875046,171.922867 
	C148.810013,173.464554 145.104080,173.987122 142.831467,173.620972 
	C141.171738,173.353561 139.870651,170.860245 138.409698,169.359177 
	C138.789398,168.967804 139.169098,168.576431 139.548813,168.185059 
	C140.698776,168.737991 141.848740,169.290939 143.374710,169.934509 
z"/>
<path fill="#7F7F81" opacity="1.000000" stroke="none" 
	d="
M124.762566,58.209053 
	C117.090057,69.452644 109.271088,80.508301 101.128418,91.320160 
	C100.453468,92.216362 96.982063,92.214813 95.868256,91.317200 
	C93.642952,89.523804 92.152145,86.819031 90.699043,84.236099 
	C92.526176,85.299767 94.237839,86.440598 95.446144,87.977234 
	C97.313789,90.352356 99.047043,90.869225 100.980736,88.296707 
	C107.349167,79.824341 113.635521,71.290108 120.031120,62.838436 
	C121.360245,61.082024 123.022835,59.577946 124.762566,58.209053 
z"/>
<path fill="#7B7B7C" opacity="1.000000" stroke="none" 
	d="
M98.955841,168.065536 
	C98.313972,169.998871 98.059937,171.769073 97.780891,173.713531 
	C95.149544,174.528885 93.299232,174.474625 93.380913,170.890778 
	C93.481865,166.462097 93.405067,162.029358 93.405067,157.172256 
	C95.982880,157.172256 97.982918,156.926025 99.882591,157.256592 
	C101.206116,157.486877 102.391968,158.508362 103.639320,159.176407 
	C102.560730,159.844177 101.494949,160.533966 100.398705,161.171356 
	C99.754707,161.545822 99.062256,161.836960 97.256805,162.721619 
	C99.780098,163.493958 101.209862,163.931580 104.311447,164.880905 
	C102.013199,166.278748 100.678436,167.090561 98.955841,168.065536 
z"/>
<path fill="#7E7D81" opacity="1.000000" stroke="none" 
	d="
M171.719025,160.963867 
	C170.770203,164.068207 170.047897,167.080978 169.786270,170.133224 
	C169.468521,173.840378 169.636612,173.854782 165.113434,174.063385 
	C165.113434,169.983276 165.113434,165.904007 165.113434,162.678192 
	C163.301971,161.042694 162.148392,160.001144 160.994797,158.959610 
	C162.449432,158.352112 163.865875,157.371765 165.366989,157.218018 
	C168.132904,156.934769 170.948532,157.137131 174.899277,157.137131 
	C173.631378,158.867569 172.890533,159.878662 171.719025,160.963867 
z"/>
<path fill="#757577" opacity="1.000000" stroke="none" 
	d="
M54.189411,162.229462 
	C54.189060,166.311462 54.189060,169.924194 54.189060,173.557312 
	C51.225227,174.546371 49.661678,174.218338 49.758163,171.013306 
	C49.852943,167.865005 49.570320,164.692825 49.857552,161.568298 
	C49.993084,160.093994 51.074062,158.706589 51.726646,157.279816 
	C52.547684,158.773270 53.368721,160.266724 54.189411,162.229462 
z"/>
<path fill="#828384" opacity="1.000000" stroke="none" 
	d="
M76.212044,65.364624 
	C71.979027,59.527786 67.936264,53.516140 63.965649,47.457214 
	C63.769989,47.158646 64.203896,46.447502 64.678757,45.912262 
	C68.876907,51.402534 72.740944,56.909012 76.505478,62.945374 
	C76.349251,63.870209 76.292519,64.265152 76.235779,64.660103 
	C76.296097,64.833519 76.356415,65.006935 76.212044,65.364624 
z"/>
<path fill="#7F7F81" opacity="1.000000" stroke="none" 
	d="
M82.035065,73.991951 
	C81.647736,73.392609 81.260406,72.793274 80.954727,71.835190 
	C82.508492,72.715546 83.980606,73.954643 85.487221,75.580093 
	C84.807220,75.986984 84.092728,76.007515 83.087189,75.380745 
	C82.542458,74.486275 82.288757,74.239113 82.035065,73.991951 
z"/>
<path fill="#7F7F81" opacity="1.000000" stroke="none" 
	d="
M91.219284,83.645988 
	C89.792587,82.820366 88.560921,81.677467 87.683937,80.259201 
	C89.163849,81.098785 90.289085,82.213745 91.219284,83.645988 
z"/>
<path fill="#7F7F81" opacity="1.000000" stroke="none" 
	d="
M88.159210,79.619568 
	C87.095833,79.024384 86.164520,78.079552 85.624283,76.795334 
	C86.773987,77.393944 87.532631,78.331932 88.159210,79.619568 
z"/>
<path fill="#F6F7F7" opacity="1.000000" stroke="none" 
	d="
M156.126190,26.664574 
	C156.097870,27.320234 155.966904,27.493229 155.600479,27.664719 
	C155.333481,26.520100 155.218781,25.313982 155.104095,24.107866 
	C155.322006,24.084221 155.539932,24.060574 155.757858,24.036928 
	C155.874146,24.772923 155.990433,25.508917 156.126190,26.664574 
z"/>
<path fill="#7F7F81" opacity="1.000000" stroke="none" 
	d="
M126.707458,53.699650 
	C126.846992,54.392117 126.697937,55.337685 126.002899,56.140495 
	C125.777565,55.316071 126.098213,54.634411 126.707458,53.699650 
z"/>
<path fill="#F6F7F7" opacity="1.000000" stroke="none" 
	d="
M151.003159,27.236652 
	C151.116959,27.409100 151.061111,27.582808 151.005280,27.756512 
	C150.948013,27.583643 150.890762,27.410778 151.003159,27.236652 
z"/>
<path fill="#F6F7F7" opacity="1.000000" stroke="none" 
	d="
M152.714600,25.603878 
	C152.841522,25.442419 153.061218,25.418547 153.280930,25.394676 
	C153.123093,25.510273 152.965240,25.625870 152.714600,25.603878 
z"/>
<path fill="#7F7F81" opacity="1.000000" stroke="none" 
	d="
M129.376038,51.904427 
	C129.024033,52.418575 128.672028,52.932720 127.886963,53.222202 
	C127.494270,52.809147 127.534645,52.620754 128.120163,52.199799 
	C128.902222,51.946301 129.139130,51.925365 129.376038,51.904427 
z"/>
<path fill="#89898B" opacity="1.000000" stroke="none" 
	d="
M129.439758,51.672493 
	C129.139130,51.925365 128.902222,51.946301 128.308716,51.980774 
	C128.247391,51.663357 128.542679,51.332397 129.184998,50.980888 
	C129.532059,50.960342 129.503479,51.440556 129.439758,51.672493 
z"/>
<path fill="#7F7F81" opacity="1.000000" stroke="none" 
	d="
M76.601776,64.567421 
	C76.292519,64.265152 76.349251,63.870209 76.620026,63.260292 
	C76.878624,63.521793 76.923195,63.998264 76.601776,64.567421 
z"/>
<path fill="#FDFDFD" opacity="1.000000" stroke="none" 
	d="
M50.902809,32.391621 
	C51.689728,32.252728 52.551186,32.394798 53.412640,32.536869 
	C53.182617,32.982548 52.952595,33.428226 52.413292,33.921749 
	C51.728455,33.537258 51.352898,33.104923 50.902809,32.391621 
z"/>
<path fill="#828384" opacity="1.000000" stroke="none" 
	d="
M82.091415,74.256096 
	C82.288757,74.239113 82.542458,74.486275 82.856003,74.998291 
	C82.659828,75.015518 82.403793,74.767876 82.091415,74.256096 
z"/>
</svg>